<svg width="256" height="256" viewBox="0 0 256 256" fill="none" xmlns="http://www.w3.org/2000/svg">
  <rect width="256" height="256" rx="56" fill="#0e1116"/>

  <!-- cables fanning from folder into the three branch terminals -->
  <g fill="none" stroke-width="6" stroke-linecap="round">
    <path d="M116 126 C 74 140 60 150 52 164" stroke="#36c5f0"/>
    <path d="M128 128 C 128 148 128 150 128 164" stroke="#22c55e"/>
    <path d="M140 126 C 182 140 196 150 204 164" stroke="#a855f7"/>
  </g>

  <!-- open folder (amber) -->
  <path d="M70 70 a10 10 0 0 1 10-10 h26 l12 13 h50 a10 10 0 0 1 10 10 v6 H70 Z" fill="#e08e1b"/>
  <path d="M66 84 h120 a10 10 0 0 1 10 10 v26 a12 12 0 0 1 -12 12 H68 a12 12 0 0 1 -12-12 V94 a10 10 0 0 1 10-10 Z"
        fill="#f4a623" stroke="#c97f14" stroke-width="3"/>

  <!-- git node badge (red diamond, white branch glyph) -->
  <rect x="108" y="74" width="40" height="40" rx="9" transform="rotate(45 128 94)" fill="#e5523b"/>
  <g stroke="#ffffff" stroke-width="5" stroke-linecap="round" fill="#ffffff">
    <line x1="119" y1="103" x2="135" y2="87"/>
    <line x1="127" y1="95" x2="133" y2="101"/>
    <circle cx="119" cy="103" r="4.5"/>
    <circle cx="135" cy="87" r="4.5"/>
    <circle cx="135" cy="101" r="4.5"/>
  </g>

  <!-- worktree sticky tab -->
  <g transform="rotate(-7 178 70)">
    <rect x="150" y="56" width="58" height="26" rx="3" fill="#f4d03f"/>
    <text x="179" y="73" text-anchor="middle" font-family="Inter, system-ui, sans-serif" font-size="13" font-weight="700" fill="#7a5c00">worktree</text>
  </g>

  <!-- three branch terminals -->
  <g>
    <!-- main (cyan) -->
    <g transform="translate(18,164)">
      <rect width="68" height="64" rx="8" fill="#141821" stroke="#252b38" stroke-width="2"/>
      <path d="M0 8 a8 8 0 0 1 8-8 h52 a8 8 0 0 1 8 8 v6 H0 Z" fill="#36c5f0"/>
      <text x="8" y="11" font-family="JetBrains Mono, monospace" font-size="8" font-weight="600" fill="#04222e">main</text>
      <g fill="#9aa3b2"><rect x="9" y="24" width="6" height="4" rx="1"/><rect x="9" y="34" width="6" height="4" rx="1"/><rect x="9" y="44" width="6" height="4" rx="1"/></g>
      <rect x="20" y="24" width="30" height="4" rx="2" fill="#f59e0b"/>
      <rect x="20" y="34" width="40" height="4" rx="2" fill="#22c55e"/>
      <rect x="20" y="44" width="24" height="4" rx="2" fill="#ef4444"/>
    </g>
    <!-- feature-login (green) -->
    <g transform="translate(94,164)">
      <rect width="68" height="64" rx="8" fill="#141821" stroke="#252b38" stroke-width="2"/>
      <path d="M0 8 a8 8 0 0 1 8-8 h52 a8 8 0 0 1 8 8 v6 H0 Z" fill="#22c55e"/>
      <text x="8" y="11" font-family="JetBrains Mono, monospace" font-size="8" font-weight="600" fill="#062b14">feature</text>
      <g fill="#9aa3b2"><rect x="9" y="24" width="6" height="4" rx="1"/><rect x="9" y="34" width="6" height="4" rx="1"/><rect x="9" y="44" width="6" height="4" rx="1"/></g>
      <rect x="20" y="24" width="38" height="4" rx="2" fill="#36c5f0"/>
      <rect x="20" y="34" width="26" height="4" rx="2" fill="#f59e0b"/>
      <rect x="20" y="44" width="34" height="4" rx="2" fill="#a855f7"/>
    </g>
    <!-- bugfix-ui (violet) -->
    <g transform="translate(170,164)">
      <rect width="68" height="64" rx="8" fill="#141821" stroke="#252b38" stroke-width="2"/>
      <path d="M0 8 a8 8 0 0 1 8-8 h52 a8 8 0 0 1 8 8 v6 H0 Z" fill="#a855f7"/>
      <text x="8" y="11" font-family="JetBrains Mono, monospace" font-size="8" font-weight="600" fill="#2a0a45">bugfix</text>
      <g fill="#9aa3b2"><rect x="9" y="24" width="6" height="4" rx="1"/><rect x="9" y="34" width="6" height="4" rx="1"/><rect x="9" y="44" width="6" height="4" rx="1"/></g>
      <rect x="20" y="24" width="28" height="4" rx="2" fill="#22c55e"/>
      <rect x="20" y="34" width="40" height="4" rx="2" fill="#ef4444"/>
      <rect x="20" y="44" width="20" height="4" rx="2" fill="#36c5f0"/>
    </g>
  </g>
</svg>
