<svg width="256" height="256" viewBox="0 0 256 256" fill="none" xmlns="http://www.w3.org/2000/svg">
  <defs>
    <filter id="soft" x="-20%" y="-20%" width="140%" height="140%">
      <feGaussianBlur stdDeviation="1.1"/>
    </filter>
  </defs>

  <rect width="256" height="256" rx="56" fill="#0e1116"/>

  <!-- cables fanning from folder into the three branch terminals -->
  <g fill="none" stroke-width="6" stroke-linecap="round">
    <path d="M116 132 C 74 144 60 152 52 164" stroke="#36c5f0"/>
    <path d="M128 134 C 128 150 128 152 128 164" stroke="#22c55e"/>
    <path d="M140 132 C 182 144 196 152 204 164" stroke="#a855f7"/>
  </g>

  <!-- open folder (amber) with .partner on the face -->
  <path d="M70 66 a10 10 0 0 1 10-10 h26 l12 13 h50 a10 10 0 0 1 10 10 v6 H70 Z" fill="#e08e1b"/>
  <path d="M66 80 h120 a10 10 0 0 1 10 10 v30 a12 12 0 0 1 -12 12 H68 a12 12 0 0 1 -12-12 V90 a10 10 0 0 1 10-10 Z"
        fill="#f4a623" stroke="#c97f14" stroke-width="3"/>
  <text x="126" y="120" text-anchor="middle" font-family="JetBrains Mono, ui-monospace, monospace"
        font-size="20" font-weight="700" fill="#6b4a0c">.partner</text>

  <!-- three branch terminals (labels blurred -> symbolic) -->
  <g>
    <!-- main (cyan) -->
    <g transform="translate(18,164)">
      <rect width="68" height="64" rx="8" fill="#141821" stroke="#252b38" stroke-width="2"/>
      <path d="M0 8 a8 8 0 0 1 8-8 h52 a8 8 0 0 1 8 8 v6 H0 Z" fill="#36c5f0"/>
      <text x="8" y="11" font-family="JetBrains Mono, monospace" font-size="8" font-weight="600" fill="#04222e" filter="url(#soft)">main</text>
      <g fill="#9aa3b2"><rect x="9" y="24" width="6" height="4" rx="1"/><rect x="9" y="34" width="6" height="4" rx="1"/><rect x="9" y="44" width="6" height="4" rx="1"/></g>
      <rect x="20" y="24" width="34" height="4" rx="2" fill="#f59e0b"/>
      <rect x="20" y="34" width="40" height="4" rx="2" fill="#22c55e"/>
      <rect x="20" y="44" width="24" height="4" rx="2" fill="#ef4444"/>
    </g>
    <!-- feature (green) -->
    <g transform="translate(94,164)">
      <rect width="68" height="64" rx="8" fill="#141821" stroke="#252b38" stroke-width="2"/>
      <path d="M0 8 a8 8 0 0 1 8-8 h52 a8 8 0 0 1 8 8 v6 H0 Z" fill="#22c55e"/>
      <text x="8" y="11" font-family="JetBrains Mono, monospace" font-size="8" font-weight="600" fill="#062b14" filter="url(#soft)">feature</text>
      <g fill="#9aa3b2"><rect x="9" y="24" width="6" height="4" rx="1"/><rect x="9" y="34" width="6" height="4" rx="1"/><rect x="9" y="44" width="6" height="4" rx="1"/></g>
      <rect x="20" y="24" width="38" height="4" rx="2" fill="#36c5f0"/>
      <rect x="20" y="34" width="26" height="4" rx="2" fill="#f59e0b"/>
      <rect x="20" y="44" width="34" height="4" rx="2" fill="#a855f7"/>
    </g>
    <!-- bugfix (violet) -->
    <g transform="translate(170,164)">
      <rect width="68" height="64" rx="8" fill="#141821" stroke="#252b38" stroke-width="2"/>
      <path d="M0 8 a8 8 0 0 1 8-8 h52 a8 8 0 0 1 8 8 v6 H0 Z" fill="#a855f7"/>
      <text x="8" y="11" font-family="JetBrains Mono, monospace" font-size="8" font-weight="600" fill="#2a0a45" filter="url(#soft)">bugfix</text>
      <g fill="#9aa3b2"><rect x="9" y="24" width="6" height="4" rx="1"/><rect x="9" y="34" width="6" height="4" rx="1"/><rect x="9" y="44" width="6" height="4" rx="1"/></g>
      <rect x="20" y="24" width="28" height="4" rx="2" fill="#22c55e"/>
      <rect x="20" y="34" width="40" height="4" rx="2" fill="#ef4444"/>
      <rect x="20" y="44" width="20" height="4" rx="2" fill="#36c5f0"/>
    </g>
  </g>
</svg>
